<svg width="92" height="38" viewBox="0 0 92 38" fill="none" xmlns="http://www.w3.org/2000/svg">
<path fill-rule="evenodd" clip-rule="evenodd" d="M84.5998 27.8985C80.495 27.8985 77.3997 24.8426 77.3997 20.7902V16.3215C77.3997 11.9424 80.2931 9.00024 84.5998 9.00024C88.9064 9.00024 91.8 11.9424 91.8 16.3215V17.734C91.8 19.9929 90.5522 20.9586 89.4837 20.9586L81.7332 20.9593C81.8309 22.8433 83.5639 23.3528 84.5998 23.3528C85.1764 23.3528 85.7054 23.2533 86.2181 23.0486C86.3835 22.9804 86.7191 22.8755 86.8893 22.8755C87.5173 22.8755 87.7612 23.499 87.8025 23.5902L88.7873 25.7706C88.7935 25.7789 89.1134 26.6339 88.3864 27.0161C87.2081 27.6005 85.9325 27.8985 84.5998 27.8985ZM87.4701 16.547C87.4448 14.7536 86.4794 13.5459 84.5998 13.5459C82.7201 13.5459 81.7547 14.7536 81.7294 16.547H87.4701Z" fill="#24206B"/>
<path fill-rule="evenodd" clip-rule="evenodd" d="M30.6 27.9C26.4953 27.9 23.4 24.8438 23.4 20.791V16.3219C23.4 11.9424 26.2934 9 30.6 9C34.9065 9 37.8 11.9424 37.8 16.3219V17.7345C37.8 19.9936 36.5522 20.9594 35.4838 20.9594L27.7335 20.9601C27.8312 22.8443 29.5641 23.3538 30.6 23.3538C31.1765 23.3538 31.7057 23.2543 32.2182 23.0496C32.3837 22.9814 32.7193 22.8765 32.8894 22.8765C33.5174 22.8765 33.7613 23.5 33.8027 23.5913L34.7875 25.7719C34.7936 25.7802 35.1134 26.6353 34.3866 27.0175C33.2083 27.602 31.9326 27.9 30.6 27.9ZM33.4703 16.5474C33.4449 14.7539 32.4796 13.546 30.6 13.546C28.7205 13.546 27.7551 14.7539 27.7297 16.5474H33.4703Z" fill="#24206B"/>
<path fill-rule="evenodd" clip-rule="evenodd" d="M64.3503 27.9C59.9889 27.9 56.7 24.8082 56.7 20.7084V16.4045C56.7 11.9757 59.7745 9 64.3503 9C68.9259 9 72 11.9757 72 16.4045V20.7084C72 24.8082 68.7114 27.9 64.3503 27.9ZM64.3503 13.4629C62.4247 13.4629 61.4483 14.3589 61.4483 16.1256V20.9855C61.4483 22.9207 63.2726 23.4371 64.3503 23.4371C65.4281 23.4371 67.2519 22.9207 67.2519 20.9855V16.1256C67.2519 14.3589 66.2756 13.4629 64.3503 13.4629Z" fill="#24206B"/>
<path fill-rule="evenodd" clip-rule="evenodd" d="M49.05 37.8C45.8305 37.8 42.9183 36.5066 40.85 34.1583C40.5924 33.8779 40.475 33.5814 40.5044 33.2818C40.5443 32.8795 40.8361 32.6408 40.898 32.5945L42.9767 30.9013C43.0381 30.8455 43.3309 30.6 43.7376 30.6C44.0435 30.6 44.3264 30.7364 44.5783 31.0057C45.718 32.1603 47.3079 32.7989 49.05 32.7989C50.7922 32.7989 52.3821 32.1603 53.5266 31.0007C53.7735 30.7364 54.0564 30.6 54.3624 30.6C54.7693 30.6 55.062 30.8455 55.1234 30.9012L57.202 32.5945C57.2638 32.6408 57.5558 32.8795 57.5956 33.2818C57.6249 33.5814 57.5077 33.8779 57.2464 34.1624C55.1815 36.5066 52.2693 37.8 49.05 37.8Z" fill="#24206B"/>
<path fill-rule="evenodd" clip-rule="evenodd" d="M51.0931 27.9C47.4487 27.9 45 25.2599 45 21.3305V0.845995C45 0.379545 45.3603 0 45.8031 0H48.7929C49.2355 0 49.5957 0.379545 49.5957 0.845995V21.0296C49.5957 22.2748 50.1378 22.9096 51.2069 22.9096L52.2971 22.9094C52.7398 22.9094 53.1 23.2888 53.1 23.7555V27.054C53.1 27.5206 52.7398 27.9 52.2971 27.9H51.0931Z" fill="#24206B"/>
<path fill-rule="evenodd" clip-rule="evenodd" d="M18.8162 11.3496C18.7182 11.1493 18.547 10.9985 18.3305 10.9239L15.3509 9.94703C15.2605 9.91585 15.1663 9.90002 15.0709 9.90002C14.7111 9.90002 14.3703 10.126 14.266 10.467L11.1152 21.1288C11.0328 21.407 10.9391 21.6648 10.8359 21.8963C10.5894 22.4573 10.0323 22.834 9.45001 22.834C8.86757 22.834 8.31064 22.4573 8.06403 21.8963C7.96084 21.6648 7.86712 21.407 7.78484 21.1288L4.63401 10.467C4.52961 10.126 4.18892 9.90002 3.82914 9.90002C3.73373 9.90002 3.63953 9.91585 3.5491 9.94703L0.569534 10.9239C0.353061 10.9985 0.181804 11.1493 0.083838 11.3496C-0.0140061 11.5499 -0.0266468 11.775 0.0482252 11.9833L3.57438 23.5459C4.10894 25.2115 5.1501 26.484 6.65471 27.2596C7.80137 27.8375 8.87425 27.9 9.28228 27.9H9.45001H9.61774C10.0258 27.9 11.0985 27.8375 12.2452 27.2596C13.7498 26.484 14.7911 25.2115 15.3256 23.5459L18.8517 11.9833C18.9267 11.775 18.914 11.5499 18.8162 11.3496Z" fill="#24206B"/>
</svg>
