<svg width="31" height="31" viewBox="0 0 31 31" fill="none" xmlns="http://www.w3.org/2000/svg">
<path d="M2.57372 14.4824H15.0171C15.9989 14.4824 16.7948 13.6852 16.7948 12.7017C16.7948 11.7183 15.9989 10.921 15.0171 10.921H2.57372C1.59196 10.921 0.796082 11.7183 0.796082 12.7017C0.796082 13.6852 1.59196 14.4824 2.57372 14.4824Z" fill="#8F238A"/>
<path d="M2.57372 20.079H15.0171C15.9989 20.079 16.7948 19.2817 16.7948 18.2983C16.7948 17.3148 15.9989 16.5176 15.0171 16.5176H2.57372C1.59196 16.5176 0.796082 17.3148 0.796082 18.2983C0.796082 19.2817 1.59196 20.079 2.57372 20.079Z" fill="#8F238A"/>
<path d="M17.7499 4.72227C23.6553 6.71901 26.4448 10.3014 26.4448 15.7544C26.4448 21.1681 23.7081 24.4896 17.8598 26.0543C16.9112 26.3081 16.3477 27.284 16.601 28.2342C16.8543 29.1843 17.8286 29.7489 18.7771 29.4951C26.1341 27.5268 30 22.8347 30 15.7544C30 8.71328 26.1869 3.81618 18.887 1.34791C17.9568 1.03339 16.9482 1.5338 16.6342 2.4656C16.3202 3.39741 16.8197 4.40775 17.7499 4.72227Z" fill="#8F238A"/>
</svg>
